<mxfile host="app.diagrams.net" modified="2024-02-21T05:52:34.482Z" agent="Mozilla/5.0 (Windows NT 10.0; Win64; x64; rv:122.0) Gecko/20100101 Firefox/122.0" etag="iG5g4RH-BhTY8fkr0D38" version="23.1.5" type="github">
  <diagram name="Class Diagram" id="UiFwU92kCV8Q5Gd8lFl0">
    <mxGraphModel dx="1509" dy="785" grid="1" gridSize="10" guides="1" tooltips="1" connect="1" arrows="1" fold="1" page="1" pageScale="2" pageWidth="850" pageHeight="1100" math="0" shadow="0">
      <root>
        <mxCell id="0" />
        <mxCell id="1" parent="0" />
        <mxCell id="MTScyvpiFBuwYGdU2Zha-1" value="I Mesh Factory" style="html=1;whiteSpace=wrap;" vertex="1" parent="1">
          <mxGeometry x="720" y="1240" width="110" height="50" as="geometry" />
        </mxCell>
        <mxCell id="MTScyvpiFBuwYGdU2Zha-3" value="" style="endArrow=open;html=1;endSize=12;startArrow=diamondThin;startSize=14;startFill=0;edgeStyle=orthogonalEdgeStyle;align=left;verticalAlign=bottom;rounded=0;exitX=1;exitY=0.5;exitDx=0;exitDy=0;" edge="1" parent="1" source="MTScyvpiFBuwYGdU2Zha-1" target="MTScyvpiFBuwYGdU2Zha-4">
          <mxGeometry x="-0.8824" y="15" relative="1" as="geometry">
            <mxPoint x="940" y="1300" as="sourcePoint" />
            <mxPoint x="1100" y="1300" as="targetPoint" />
            <mxPoint x="1" as="offset" />
          </mxGeometry>
        </mxCell>
        <mxCell id="MTScyvpiFBuwYGdU2Zha-4" value="I Tiling Strategy" style="html=1;whiteSpace=wrap;" vertex="1" parent="1">
          <mxGeometry x="1000" y="1240" width="110" height="50" as="geometry" />
        </mxCell>
        <mxCell id="MTScyvpiFBuwYGdU2Zha-5" value="GCS Spherical Tiling" style="html=1;whiteSpace=wrap;" vertex="1" parent="1">
          <mxGeometry x="940" y="1330" width="110" height="50" as="geometry" />
        </mxCell>
        <mxCell id="MTScyvpiFBuwYGdU2Zha-6" value="GCS Offset Spherical Tiling" style="html=1;whiteSpace=wrap;" vertex="1" parent="1">
          <mxGeometry x="1060" y="1330" width="110" height="50" as="geometry" />
        </mxCell>
        <mxCell id="MTScyvpiFBuwYGdU2Zha-7" value="" style="endArrow=block;dashed=1;endFill=0;endSize=12;html=1;rounded=0;exitX=0.5;exitY=0;exitDx=0;exitDy=0;entryX=0.5;entryY=1;entryDx=0;entryDy=0;edgeStyle=elbowEdgeStyle;elbow=vertical;" edge="1" parent="1" source="MTScyvpiFBuwYGdU2Zha-6" target="MTScyvpiFBuwYGdU2Zha-4">
          <mxGeometry width="160" relative="1" as="geometry">
            <mxPoint x="1120" y="1320" as="sourcePoint" />
            <mxPoint x="1280" y="1320" as="targetPoint" />
          </mxGeometry>
        </mxCell>
        <mxCell id="MTScyvpiFBuwYGdU2Zha-8" value="" style="endArrow=block;dashed=1;endFill=0;endSize=12;html=1;rounded=0;exitX=0.5;exitY=0;exitDx=0;exitDy=0;entryX=0.5;entryY=1;entryDx=0;entryDy=0;edgeStyle=elbowEdgeStyle;elbow=vertical;" edge="1" parent="1" source="MTScyvpiFBuwYGdU2Zha-5" target="MTScyvpiFBuwYGdU2Zha-4">
          <mxGeometry width="160" relative="1" as="geometry">
            <mxPoint x="1115" y="1360" as="sourcePoint" />
            <mxPoint x="1040" y="1300" as="targetPoint" />
          </mxGeometry>
        </mxCell>
        <mxCell id="MTScyvpiFBuwYGdU2Zha-9" value="Compute Mesh Factory" style="html=1;whiteSpace=wrap;" vertex="1" parent="1">
          <mxGeometry x="660" y="1330" width="110" height="50" as="geometry" />
        </mxCell>
        <mxCell id="MTScyvpiFBuwYGdU2Zha-10" value="I Mesh" style="html=1;whiteSpace=wrap;" vertex="1" parent="1">
          <mxGeometry x="440" y="1240" width="110" height="50" as="geometry" />
        </mxCell>
        <mxCell id="MTScyvpiFBuwYGdU2Zha-11" value="Use" style="endArrow=open;endSize=12;dashed=1;html=1;rounded=0;exitX=0;exitY=0.5;exitDx=0;exitDy=0;entryX=1;entryY=0.5;entryDx=0;entryDy=0;" edge="1" parent="1" source="MTScyvpiFBuwYGdU2Zha-1" target="MTScyvpiFBuwYGdU2Zha-10">
          <mxGeometry width="160" relative="1" as="geometry">
            <mxPoint x="440" y="1440" as="sourcePoint" />
            <mxPoint x="600" y="1440" as="targetPoint" />
          </mxGeometry>
        </mxCell>
        <mxCell id="MTScyvpiFBuwYGdU2Zha-12" value="Compute Mesh" style="html=1;whiteSpace=wrap;" vertex="1" parent="1">
          <mxGeometry x="380" y="1330" width="110" height="50" as="geometry" />
        </mxCell>
        <mxCell id="MTScyvpiFBuwYGdU2Zha-13" value="Graphics Mesh" style="html=1;whiteSpace=wrap;" vertex="1" parent="1">
          <mxGeometry x="500" y="1330" width="110" height="50" as="geometry" />
        </mxCell>
        <mxCell id="MTScyvpiFBuwYGdU2Zha-15" value="Object" style="html=1;whiteSpace=wrap;" vertex="1" parent="1">
          <mxGeometry x="780" y="1330" width="110" height="50" as="geometry" />
        </mxCell>
        <mxCell id="MTScyvpiFBuwYGdU2Zha-16" value="" style="endArrow=block;dashed=1;endFill=0;endSize=12;html=1;rounded=0;exitX=0.5;exitY=0;exitDx=0;exitDy=0;entryX=0.5;entryY=1;entryDx=0;entryDy=0;edgeStyle=elbowEdgeStyle;elbow=vertical;" edge="1" parent="1" source="MTScyvpiFBuwYGdU2Zha-15" target="MTScyvpiFBuwYGdU2Zha-1">
          <mxGeometry width="160" relative="1" as="geometry">
            <mxPoint x="975" y="1350" as="sourcePoint" />
            <mxPoint x="1045" y="1310" as="targetPoint" />
          </mxGeometry>
        </mxCell>
        <mxCell id="MTScyvpiFBuwYGdU2Zha-17" value="" style="endArrow=block;dashed=1;endFill=0;endSize=12;html=1;rounded=0;exitX=0.5;exitY=0;exitDx=0;exitDy=0;entryX=0.5;entryY=1;entryDx=0;entryDy=0;edgeStyle=elbowEdgeStyle;elbow=vertical;" edge="1" parent="1" source="MTScyvpiFBuwYGdU2Zha-9" target="MTScyvpiFBuwYGdU2Zha-1">
          <mxGeometry width="160" relative="1" as="geometry">
            <mxPoint x="825" y="1350" as="sourcePoint" />
            <mxPoint x="793" y="1310" as="targetPoint" />
          </mxGeometry>
        </mxCell>
        <mxCell id="MTScyvpiFBuwYGdU2Zha-18" value="" style="endArrow=block;dashed=1;endFill=0;endSize=12;html=1;rounded=0;entryX=0.5;entryY=1;entryDx=0;entryDy=0;exitX=0.5;exitY=0;exitDx=0;exitDy=0;edgeStyle=elbowEdgeStyle;elbow=vertical;" edge="1" parent="1" source="MTScyvpiFBuwYGdU2Zha-12" target="MTScyvpiFBuwYGdU2Zha-10">
          <mxGeometry width="160" relative="1" as="geometry">
            <mxPoint x="410" y="1360" as="sourcePoint" />
            <mxPoint x="590" y="1370" as="targetPoint" />
          </mxGeometry>
        </mxCell>
        <mxCell id="MTScyvpiFBuwYGdU2Zha-19" value="" style="endArrow=block;dashed=1;endFill=0;endSize=12;html=1;rounded=0;entryX=0.5;entryY=1;entryDx=0;entryDy=0;exitX=0.5;exitY=0;exitDx=0;exitDy=0;edgeStyle=elbowEdgeStyle;elbow=vertical;" edge="1" parent="1" source="MTScyvpiFBuwYGdU2Zha-13" target="MTScyvpiFBuwYGdU2Zha-10">
          <mxGeometry width="160" relative="1" as="geometry">
            <mxPoint x="660" y="1390" as="sourcePoint" />
            <mxPoint x="670" y="1330" as="targetPoint" />
          </mxGeometry>
        </mxCell>
        <mxCell id="MTScyvpiFBuwYGdU2Zha-21" value="&lt;div&gt;Program Builder&lt;/div&gt;" style="html=1;whiteSpace=wrap;" vertex="1" parent="1">
          <mxGeometry x="1380" y="1240" width="110" height="50" as="geometry" />
        </mxCell>
        <mxCell id="MTScyvpiFBuwYGdU2Zha-71" style="edgeStyle=orthogonalEdgeStyle;rounded=0;orthogonalLoop=1;jettySize=auto;html=1;exitX=0.25;exitY=0;exitDx=0;exitDy=0;entryX=0.75;entryY=0;entryDx=0;entryDy=0;jumpStyle=none;" edge="1" parent="1" source="MTScyvpiFBuwYGdU2Zha-25" target="MTScyvpiFBuwYGdU2Zha-10">
          <mxGeometry relative="1" as="geometry">
            <Array as="points">
              <mxPoint x="1218" y="1220" />
              <mxPoint x="522" y="1220" />
            </Array>
          </mxGeometry>
        </mxCell>
        <mxCell id="MTScyvpiFBuwYGdU2Zha-25" value="GL Binder" style="html=1;whiteSpace=wrap;" vertex="1" parent="1">
          <mxGeometry x="1190" y="1240" width="110" height="50" as="geometry" />
        </mxCell>
        <mxCell id="MTScyvpiFBuwYGdU2Zha-35" style="edgeStyle=orthogonalEdgeStyle;rounded=0;orthogonalLoop=1;jettySize=auto;html=1;exitX=0.5;exitY=1;exitDx=0;exitDy=0;endArrow=block;endFill=1;" edge="1" parent="1" source="MTScyvpiFBuwYGdU2Zha-27" target="MTScyvpiFBuwYGdU2Zha-25">
          <mxGeometry relative="1" as="geometry">
            <Array as="points">
              <mxPoint x="975" y="1200" />
              <mxPoint x="1245" y="1200" />
            </Array>
          </mxGeometry>
        </mxCell>
        <mxCell id="MTScyvpiFBuwYGdU2Zha-36" style="edgeStyle=orthogonalEdgeStyle;rounded=0;orthogonalLoop=1;jettySize=auto;html=1;exitX=0.5;exitY=1;exitDx=0;exitDy=0;entryX=0.5;entryY=0;entryDx=0;entryDy=0;endArrow=block;endFill=1;" edge="1" parent="1" source="MTScyvpiFBuwYGdU2Zha-27" target="MTScyvpiFBuwYGdU2Zha-21">
          <mxGeometry relative="1" as="geometry">
            <Array as="points">
              <mxPoint x="975" y="1180" />
              <mxPoint x="1435" y="1180" />
            </Array>
          </mxGeometry>
        </mxCell>
        <mxCell id="MTScyvpiFBuwYGdU2Zha-38" style="edgeStyle=orthogonalEdgeStyle;rounded=0;orthogonalLoop=1;jettySize=auto;html=1;exitX=0.5;exitY=1;exitDx=0;exitDy=0;entryX=0.5;entryY=0;entryDx=0;entryDy=0;endArrow=block;endFill=1;jumpStyle=arc;jumpSize=15;" edge="1" parent="1" source="MTScyvpiFBuwYGdU2Zha-27" target="MTScyvpiFBuwYGdU2Zha-1">
          <mxGeometry relative="1" as="geometry">
            <Array as="points">
              <mxPoint x="975" y="1200" />
              <mxPoint x="775" y="1200" />
            </Array>
          </mxGeometry>
        </mxCell>
        <mxCell id="MTScyvpiFBuwYGdU2Zha-27" value="Application" style="html=1;whiteSpace=wrap;" vertex="1" parent="1">
          <mxGeometry x="920" y="1080" width="110" height="50" as="geometry" />
        </mxCell>
        <mxCell id="MTScyvpiFBuwYGdU2Zha-39" value="Use" style="endArrow=open;endSize=12;dashed=1;html=1;rounded=0;exitX=0.25;exitY=1;exitDx=0;exitDy=0;entryX=0.5;entryY=0;entryDx=0;entryDy=0;edgeStyle=elbowEdgeStyle;elbow=vertical;" edge="1" parent="1" source="MTScyvpiFBuwYGdU2Zha-27" target="MTScyvpiFBuwYGdU2Zha-10">
          <mxGeometry width="160" relative="1" as="geometry">
            <mxPoint x="670" y="1080" as="sourcePoint" />
            <mxPoint x="830" y="1080" as="targetPoint" />
            <Array as="points">
              <mxPoint x="760" y="1180" />
            </Array>
          </mxGeometry>
        </mxCell>
      </root>
    </mxGraphModel>
  </diagram>
</mxfile>
